<?xml version="1.0" encoding="UTF-8"?>
<svg xmlns="http://www.w3.org/2000/svg" xmlns:xlink="http://www.w3.org/1999/xlink" width="365pt" height="365.01pt" viewBox="0 0 365 365.01" version="1.1">
<g id="surface1">
<path style=" stroke:none;fill-rule:nonzero;fill:rgb(100%,100%,100%);fill-opacity:1;" d="M 182.503906 1.058594 C 82.296875 1.058594 1.054688 82.300781 1.054688 182.507813 C 1.054688 282.707031 82.296875 363.957031 182.503906 363.957031 C 282.714844 363.957031 363.945313 282.707031 363.945313 182.507813 C 363.945313 82.300781 282.714844 1.058594 182.503906 1.058594 "/>
<path style=" stroke:none;fill-rule:nonzero;fill:rgb(86.698914%,70.599365%,14.898682%);fill-opacity:1;" d="M 182.503906 1.058594 L 182.503906 0.00390625 C 81.710938 0.00390625 0 81.714844 0 182.507813 C 0 283.289063 81.710938 365.011719 182.503906 365.011719 C 283.300781 365.011719 365 283.289063 365 182.507813 C 365 81.714844 283.296875 0.00390625 182.503906 0.00390625 L 182.503906 2.113281 C 232.320313 2.113281 277.410156 22.304688 310.058594 54.949219 C 342.703125 87.597656 362.890625 132.691406 362.890625 182.507813 C 362.890625 232.320313 342.703125 277.410156 310.058594 310.058594 C 277.410156 342.707031 232.320313 362.898438 182.503906 362.902344 C 132.6875 362.898438 87.59375 342.707031 54.949219 310.058594 C 22.300781 277.410156 2.109375 232.320313 2.109375 182.507813 C 2.109375 132.691406 22.300781 87.597656 54.949219 54.949219 C 87.59375 22.304688 132.6875 2.113281 182.503906 2.113281 L 182.503906 1.058594 "/>
<path style=" stroke:none;fill-rule:nonzero;fill:rgb(66.299438%,11.399841%,21.199036%);fill-opacity:1;" d="M 190.046875 9.722656 C 94.65625 5.5625 13.929688 79.515625 9.769531 174.917969 C 5.617188 270.304688 79.566406 351.023438 174.957031 355.171875 C 270.351563 359.347656 351.070313 285.386719 355.230469 189.996094 C 359.394531 94.601563 285.441406 13.882813 190.046875 9.722656 "/>
<path style=" stroke:none;fill-rule:nonzero;fill:rgb(100%,100%,100%);fill-opacity:1;" d="M 182.503906 64.511719 C 117.375 64.511719 64.566406 117.308594 64.566406 182.457031 C 64.566406 247.589844 117.375 300.386719 182.503906 300.386719 C 247.648438 300.386719 300.441406 247.589844 300.441406 182.457031 C 300.441406 117.3125 247.648438 64.511719 182.503906 64.511719 "/>
<path style=" stroke:none;fill-rule:nonzero;fill:rgb(86.698914%,70.599365%,14.898682%);fill-opacity:1;" d="M 182.503906 72.304688 L 182.503906 71.246094 C 121.109375 71.25 71.332031 121.023438 71.332031 182.421875 C 71.332031 243.824219 121.113281 293.597656 182.503906 293.601563 C 243.902344 293.597656 293.675781 243.824219 293.675781 182.421875 C 293.675781 121.023438 243.902344 71.25 182.503906 71.246094 L 182.503906 73.359375 C 212.625 73.359375 239.882813 85.566406 259.621094 105.304688 C 279.359375 125.042969 291.566406 152.300781 291.566406 182.421875 C 291.566406 212.542969 279.359375 239.804688 259.621094 259.546875 C 239.882813 279.285156 212.625 291.488281 182.503906 291.488281 C 152.386719 291.488281 125.128906 279.285156 105.386719 259.546875 C 85.648438 239.804688 73.441406 212.542969 73.441406 182.421875 C 73.441406 152.300781 85.648438 125.042969 105.386719 105.304688 C 125.128906 85.566406 152.386719 73.359375 182.503906 73.359375 L 182.503906 72.304688 "/>
<path style=" stroke:none;fill-rule:nonzero;fill:rgb(66.299438%,11.399841%,21.199036%);fill-opacity:1;" d="M 158.4375 116.199219 C 157.25 116.199219 155.359375 116.199219 154.515625 116.316406 L 154.515625 115.777344 C 156.265625 115.582031 157.027344 115.523438 157.027344 113.183594 L 157.027344 106.074219 C 157.027344 103.738281 156.265625 103.652344 154.515625 103.453125 L 154.515625 102.945313 C 155.363281 103.058594 157.253906 103.058594 158.4375 103.058594 C 159.28125 103.058594 161.144531 103.03125 161.734375 102.945313 L 161.792969 103.453125 C 159.960938 103.621094 159.308594 103.875 159.308594 106.074219 L 159.308594 113.183594 C 159.308594 115.382813 159.960938 115.609375 161.792969 115.777344 L 161.734375 116.316406 C 161.144531 116.230469 159.28125 116.199219 158.4375 116.199219 "/>
<path style=" stroke:none;fill-rule:nonzero;fill:rgb(66.299438%,11.399841%,21.199036%);fill-opacity:1;" d="M 168.277344 120.601563 C 175.695313 117.835938 177.644531 113.210938 177.644531 108.671875 C 177.644531 105.171875 175.835938 103.367188 173.695313 103.367188 C 171.523438 103.367188 170.449219 105.171875 170.449219 107.652344 C 170.449219 109.9375 171.75 111.460938 173.75 111.460938 C 174.316406 111.460938 174.964844 111.265625 175.21875 111.125 C 175.414063 111.011719 175.667969 111.378906 175.527344 111.492188 C 174.765625 112.28125 173.523438 112.847656 172.480469 112.847656 C 169.574219 112.847656 168.023438 110.476563 168.023438 108.304688 C 168.023438 105.34375 170.5625 102.636719 174.0625 102.636719 C 177.898438 102.636719 180.152344 105.511719 180.152344 108.8125 C 180.152344 113.382813 177.109375 118.542969 168.449219 121.082031 C 168.222656 121.136719 168.109375 120.65625 168.277344 120.601563 "/>
<path style=" stroke:none;fill-rule:nonzero;fill:rgb(66.299438%,11.399841%,21.199036%);fill-opacity:1;" d="M 189.265625 104.609375 C 188.445313 104.609375 187.824219 105.621094 187.824219 106.609375 C 187.824219 107.484375 188.109375 107.964844 191.550781 109.597656 C 194.058594 110.785156 195.160156 112.507813 195.160156 114.421875 C 195.160156 117.46875 192.339844 120.035156 186.949219 121.078125 L 186.78125 120.570313 C 189.769531 119.8125 192.875 118.035156 192.875 115.15625 C 192.875 113.578125 192.195313 112.535156 189.714844 111.40625 C 187.652344 110.476563 186.582031 109.660156 186.582031 108.078125 C 186.582031 107.375 186.921875 106.074219 187.203125 105.371094 C 188.074219 103.285156 188.894531 102.464844 189.964844 102.464844 C 190.867188 102.464844 192.109375 103.226563 193.574219 103.226563 C 194.253906 103.226563 194.507813 102.832031 194.761719 101.703125 L 195.269531 101.761719 C 195.214844 104.523438 194.421875 105.453125 193.125 105.453125 C 191.664063 105.453125 190.589844 104.609375 189.265625 104.609375 "/>
<path style=" stroke:none;fill-rule:nonzero;fill:rgb(66.299438%,11.399841%,21.199036%);fill-opacity:1;" d="M 204.128906 104.609375 C 203.3125 104.609375 202.691406 105.621094 202.691406 106.609375 C 202.691406 107.484375 202.972656 107.964844 206.414063 109.597656 C 208.921875 110.785156 210.023438 112.507813 210.023438 114.421875 C 210.023438 117.46875 207.203125 120.035156 201.816406 121.078125 L 201.644531 120.570313 C 204.636719 119.8125 207.738281 118.035156 207.738281 115.15625 C 207.738281 113.578125 207.0625 112.535156 204.582031 111.40625 C 202.523438 110.476563 201.453125 109.660156 201.453125 108.078125 C 201.453125 107.375 201.789063 106.074219 202.070313 105.371094 C 202.945313 103.285156 203.765625 102.464844 204.835938 102.464844 C 205.738281 102.464844 206.980469 103.226563 208.445313 103.226563 C 209.121094 103.226563 209.375 102.832031 209.632813 101.703125 L 210.140625 101.761719 C 210.082031 104.523438 209.292969 105.453125 207.996094 105.453125 C 206.527344 105.453125 205.457031 104.609375 204.128906 104.609375 "/>
<path style=" stroke:none;fill-rule:nonzero;fill:rgb(100%,100%,100%);fill-opacity:1;" d="M 60.601563 252.4375 L 58.734375 259.316406 L 51.855469 257.445313 L 53.726563 250.566406 L 60.601563 252.4375 "/>
<path style=" stroke:none;fill-rule:nonzero;fill:rgb(100%,100%,100%);fill-opacity:1;" d="M 43.230469 227.667969 C 42.097656 224.09375 40.59375 223.574219 38.46875 224.246094 C 35.5625 225.171875 34.988281 227.039063 35.785156 229.554688 C 35.910156 229.949219 36.003906 229.964844 36.136719 230.394531 C 37.105469 230.304688 38.019531 230.054688 40.183594 229.371094 L 49.179688 226.515625 C 52.363281 225.503906 53.054688 225.371094 52.359375 223.171875 C 51.320313 219.90625 49.644531 218.839844 46.894531 219.714844 C 44.023438 220.625 42.382813 223.351563 44.136719 227.382813 Z M 54.542969 226.238281 C 55.078125 227.929688 55.6875 229.855469 56.234375 231.023438 C 56.398438 231.402344 55.535156 231.417969 55.5 231.300781 C 54.398438 228.792969 53.804688 228.550781 50.074219 229.734375 L 41.191406 232.554688 C 37.457031 233.738281 37.113281 234.28125 37.621094 236.976563 C 37.660156 237.09375 36.894531 237.550781 36.847656 237.132813 C 36.671875 235.890625 36.222656 234.476563 35.671875 232.746094 C 35.449219 232.039063 34.71875 230.15625 34.40625 229.171875 C 33.347656 225.832031 33.949219 222.269531 36.894531 221.332031 C 38.546875 220.808594 40.851563 221.808594 42.230469 223.835938 C 41.355469 220.394531 42.582031 217.582031 45.136719 216.769531 C 48.433594 215.722656 52.054688 217.992188 53.476563 222.472656 C 53.785156 223.453125 54.304688 225.496094 54.542969 226.238281 "/>
<path style=" stroke:none;fill-rule:nonzero;fill:rgb(100%,100%,100%);fill-opacity:1;" d="M 30.261719 206.722656 C 30.855469 206.804688 32.050781 206.71875 34.253906 206.402344 L 39.152344 205.699219 C 39.097656 205.335938 39.105469 205.082031 39.027344 204.550781 C 38.449219 200.511719 36.667969 199.144531 33.894531 199.539063 C 30.46875 200.03125 29.523438 202.164063 30.03125 205.714844 C 30.097656 206.164063 30.15625 206.28125 30.261719 206.722656 Z M 40.207031 204.339844 C 40.296875 204.953125 40.324219 205.15625 40.335938 205.53125 L 43.765625 205.039063 C 47.4375 204.511719 48.132813 204.121094 47.980469 201.3125 C 47.964844 201.1875 48.808594 200.984375 48.761719 201.242188 C 48.773438 202.195313 49.03125 204.28125 49.214844 205.589844 C 49.472656 207.386719 49.761719 209.386719 50.109375 210.667969 C 50.230469 210.902344 49.351563 210.902344 49.335938 210.777344 C 48.667969 208.167969 48.109375 207.746094 44.234375 208.304688 L 35.011719 209.625 C 31.460938 210.132813 30.78125 210.898438 30.984375 212.324219 C 31.03125 212.652344 31.121094 213.011719 31.269531 213.449219 C 31.375 213.601563 30.628906 213.917969 30.554688 213.679688 C 29.957031 212.429688 29.273438 208.820313 28.796875 205.476563 C 28.007813 199.964844 29.339844 196.773438 32.605469 196.304688 C 34.648438 196.011719 36.855469 197.195313 38.222656 199.457031 C 42.152344 197.226563 47.226563 192.546875 46.71875 188.996094 C 46.703125 188.871094 47.460938 188.640625 47.492188 188.882813 C 48.453125 195.574219 44.261719 200.050781 39.636719 202.085938 C 39.863281 202.808594 40.117188 203.726563 40.207031 204.339844 "/>
<path style=" stroke:none;fill-rule:nonzero;fill:rgb(100%,100%,100%);fill-opacity:1;" d="M 47.28125 181.714844 C 47.277344 183.570313 47.269531 185.546875 47.429688 186.867188 C 47.515625 187.195313 46.648438 186.988281 46.648438 186.90625 C 46.367188 184.1875 45.832031 183.773438 41.957031 183.761719 L 32.640625 183.734375 C 28.722656 183.722656 28.1875 184.132813 27.890625 186.855469 C 27.890625 186.9375 27.066406 187.097656 27.109375 186.769531 C 27.316406 185.492188 27.324219 183.511719 27.328125 181.65625 C 27.328125 180.421875 27.253906 178.277344 27.132813 177.328125 C 27.09375 177 27.917969 177.164063 27.917969 177.25 C 28.113281 180.09375 28.980469 180.382813 32.648438 180.394531 L 41.964844 180.421875 C 45.632813 180.433594 46.417969 180.144531 46.675781 177.300781 C 46.675781 177.21875 47.5 177.058594 47.457031 177.386719 C 47.332031 178.332031 47.285156 180.476563 47.28125 181.714844 "/>
<path style=" stroke:none;fill-rule:nonzero;fill:rgb(100%,100%,100%);fill-opacity:1;" d="M 48.550781 152.6875 C 49.570313 155.59375 50.058594 158.128906 49.59375 161.183594 C 48.523438 168.234375 43.136719 171.835938 37.839844 171.03125 C 32.257813 170.183594 27.652344 164.519531 28.71875 157.511719 C 29.15625 154.617188 31.027344 151.648438 31.59375 151.191406 C 31.835938 150.976563 34.488281 151.089844 36.378906 151.546875 C 36.585938 151.578125 36.386719 152.339844 36.300781 152.324219 C 33.875 152.121094 30.5 154.28125 29.863281 158.476563 C 29.167969 163.042969 31.714844 166.597656 37.21875 167.433594 C 43.863281 168.445313 47.675781 165.019531 48.34375 160.621094 C 48.828125 157.441406 48.128906 156.835938 47.707031 156.601563 C 47.398438 156.433594 46.472656 156.207031 45.78125 156.101563 C 41.867188 155.511719 41.683594 155.605469 40.945313 158.828125 C 40.925781 158.953125 40.09375 158.949219 40.167969 158.710938 C 40.488281 157.425781 40.917969 155.152344 41.191406 153.363281 C 41.382813 152.097656 41.621094 150.257813 41.640625 149.304688 C 41.597656 149.046875 42.398438 149.253906 42.382813 149.371094 C 42.203125 152.179688 42.570313 152.234375 46.441406 152.824219 C 47.339844 152.960938 48.039063 153.023438 48.550781 152.6875 "/>
<path style=" stroke:none;fill-rule:nonzero;fill:rgb(100%,100%,100%);fill-opacity:1;" d="M 56.5 133.757813 C 56.46875 133.96875 55.722656 133.609375 55.765625 133.488281 C 56.308594 131.144531 55.917969 130.523438 52.3125 129.21875 L 48.359375 127.789063 L 44.601563 138.179688 L 48.554688 139.609375 C 51.96875 140.84375 52.894531 140.828125 53.925781 138.570313 C 53.96875 138.453125 54.8125 138.671875 54.652344 138.878906 C 54.199219 139.765625 53.542969 141.460938 53.09375 142.699219 C 52.492188 144.367188 51.707031 146.535156 51.414063 147.835938 C 51.40625 148.097656 50.632813 147.6875 50.675781 147.570313 C 51.390625 144.496094 51.101563 144.085938 47.421875 142.753906 L 38.660156 139.585938 C 34.976563 138.253906 34.410156 138.359375 33.035156 141.191406 C 32.996094 141.308594 32.152344 141.09375 32.3125 140.886719 C 32.941406 139.753906 33.726563 137.582031 34.332031 135.917969 C 34.78125 134.675781 35.316406 132.941406 35.539063 131.96875 C 35.542969 131.710938 36.332031 132.082031 36.289063 132.195313 C 35.640625 134.59375 36.34375 135.195313 39.792969 136.445313 L 43.476563 137.777344 L 47.234375 127.386719 L 43.550781 126.054688 C 39.90625 124.738281 39.171875 124.953125 38.125 127.117188 L 37.347656 126.839844 C 37.976563 125.703125 38.617188 124.054688 39.222656 122.386719 C 39.683594 121.109375 40.421875 118.828125 40.628906 117.898438 C 40.632813 117.636719 41.449219 117.929688 41.378906 118.121094 C 40.519531 121.234375 41.199219 121.652344 44.6875 122.914063 L 53.449219 126.082031 C 56.9375 127.34375 57.652344 127.425781 59.019531 124.5 C 59.089844 124.308594 59.902344 124.601563 59.738281 124.808594 C 59.300781 125.65625 58.449219 127.890625 57.988281 129.171875 C 57.382813 130.835938 56.792969 132.460938 56.5 133.757813 "/>
<path style=" stroke:none;fill-rule:nonzero;fill:rgb(100%,100%,100%);fill-opacity:1;" d="M 57.105469 111.621094 L 60.042969 106.703125 L 52.789063 105.34375 Z M 67.652344 111.25 C 67.597656 111.503906 66.914063 110.953125 66.980469 110.847656 C 67.554688 109.5625 68.179688 108.921875 67.46875 108.5 C 66.65625 108.015625 65.210938 107.777344 63.59375 107.433594 L 61.335938 106.949219 L 57.910156 112.683594 L 59.300781 114.617188 C 60.457031 116.222656 61.25 117.222656 61.960938 117.648438 C 62.558594 118.007813 62.964844 117.335938 63.742188 116.265625 C 63.847656 116.089844 64.59375 116.535156 64.394531 116.703125 C 63.804688 117.453125 63.113281 118.53125 62.4375 119.660156 C 61.527344 121.183594 61.378906 121.429688 60.824219 122.683594 C 60.730469 122.917969 60.085938 122.390625 60.148438 122.28125 C 61.066406 120.429688 60.660156 118.9375 58.488281 115.820313 L 49.152344 102.269531 C 49.015625 102.09375 49.191406 101.714844 49.445313 101.773438 L 65.339844 104.351563 C 68.5 104.847656 70.105469 105.136719 71.839844 102.714844 C 71.90625 102.609375 72.691406 102.984375 72.492188 103.152344 C 71.878906 103.9375 70.9375 105.4375 70.238281 106.609375 C 69.328125 108.121094 68.1875 110.03125 67.652344 111.25 "/>
<path style=" stroke:none;fill-rule:nonzero;fill:rgb(100%,100%,100%);fill-opacity:1;" d="M 85.953125 87.773438 C 85.847656 88.007813 85.261719 87.363281 85.347656 87.273438 C 86.78125 85.34375 86.632813 84.648438 83.75 82.0625 L 75.644531 74.855469 L 82.882813 90.996094 C 82.976563 91.199219 82.644531 91.503906 82.464844 91.453125 L 65.527344 86.386719 L 73.164063 93.609375 C 75.597656 95.898438 76.585938 96.464844 78.660156 94.566406 C 78.746094 94.476563 79.4375 95 79.210938 95.125 C 78.476563 95.742188 77.695313 96.535156 76.804688 97.507813 C 75.605469 98.8125 74.71875 99.785156 73.945313 100.871094 C 73.839844 101.109375 73.285156 100.433594 73.367188 100.34375 C 74.996094 98.140625 74.636719 97.253906 72.078125 94.796875 L 64.222656 87.316406 C 63.1875 86.3125 61.113281 86.3125 59.34375 87.882813 C 59.261719 87.972656 58.570313 87.507813 58.796875 87.382813 C 60.035156 86.335938 61.484375 84.753906 63.464844 82.597656 L 79.898438 87.367188 L 75.457031 77.871094 C 74.492188 75.8125 73.703125 73.804688 72.765625 72.386719 C 74.25 70.949219 76.332031 68.554688 77.183594 67.320313 C 77.289063 67.085938 77.84375 67.703125 77.789063 67.761719 C 75.800781 70.359375 76.207031 71.011719 79 73.457031 L 85.980469 79.632813 C 88.769531 82.078125 89.511719 82.367188 91.839844 80.195313 C 91.925781 80.101563 92.617188 80.628906 92.386719 80.753906 C 91.628906 81.402344 90.011719 83.105469 89.121094 84.078125 C 87.863281 85.441406 86.71875 86.6875 85.953125 87.773438 "/>
<path style=" stroke:none;fill-rule:nonzero;fill:rgb(100%,100%,100%);fill-opacity:1;" d="M 108.179688 57.449219 L 110.65625 61.488281 C 112.941406 65.210938 113.265625 65.109375 115.785156 63.855469 C 115.890625 63.789063 116.414063 64.484375 116.160156 64.542969 C 115.253906 64.953125 113.472656 65.996094 112.347656 66.6875 C 110.765625 67.660156 109.082031 68.695313 108.042969 69.527344 C 107.875 69.726563 107.527344 68.921875 107.632813 68.859375 C 109.742188 67.175781 110.203125 67.140625 107.808594 63.238281 L 105.585938 59.617188 L 100.988281 57.40625 C 96.101563 55.039063 95.125 54.863281 92.78125 56.011719 C 92.675781 56.078125 92.117188 55.402344 92.371094 55.34375 C 93.582031 54.796875 94.953125 53.953125 96.496094 53.007813 C 97.621094 52.316406 99.324219 51.226563 100.066406 50.621094 C 100.230469 50.421875 100.617188 51.203125 100.507813 51.269531 C 98.332031 52.847656 99.175781 53.199219 103.925781 55.414063 L 106.914063 56.820313 L 107.210938 52.574219 C 107.574219 47.417969 107.300781 47.441406 105.007813 48.511719 C 104.902344 48.574219 104.308594 47.921875 104.632813 47.820313 C 105.808594 47.292969 106.933594 46.601563 108.480469 45.65625 C 109.605469 44.964844 110.285156 44.496094 111.027344 43.898438 C 111.195313 43.695313 111.578125 44.476563 111.472656 44.542969 C 109.296875 46.121094 108.96875 47 108.601563 51.917969 L 108.179688 57.449219 "/>
<path style=" stroke:none;fill-rule:nonzero;fill:rgb(100%,100%,100%);fill-opacity:1;" d="M 122.070313 48.910156 C 124.535156 55.207031 129.84375 56.894531 133.683594 55.390625 C 137.792969 53.785156 139.792969 50.078125 137.78125 44.933594 C 135.316406 38.636719 129.941406 36.890625 126.101563 38.390625 C 121.992188 40 120.042969 43.730469 122.070313 48.910156 Z M 119.328125 51.402344 C 117.269531 46.140625 119.992188 39.410156 126.289063 36.945313 C 132.199219 34.632813 138.480469 37.441406 140.449219 42.472656 C 142.492188 47.691406 139.808594 54.40625 133.472656 56.890625 C 127.601563 59.1875 121.296875 56.429688 119.328125 51.402344 "/>
<path style=" stroke:none;fill-rule:nonzero;fill:rgb(100%,100%,100%);fill-opacity:1;" d="M 166.273438 40.441406 C 167.023438 44.578125 164.53125 48.632813 159.097656 49.617188 C 154.390625 50.472656 149.839844 48.242188 148.953125 43.375 L 147.660156 36.234375 C 146.960938 32.378906 146.417969 31.933594 143.722656 32.089844 C 143.601563 32.109375 143.371094 31.316406 143.628906 31.351563 C 144.925781 31.324219 146.863281 30.929688 148.6875 30.601563 C 149.988281 30.363281 152.007813 29.953125 152.960938 29.660156 C 153.1875 29.53125 153.335938 30.34375 153.132813 30.378906 C 150.417969 31.128906 150.320313 31.980469 150.984375 35.632813 L 152.15625 42.082031 C 153.015625 46.828125 156.484375 48.375 159.605469 47.8125 C 163.703125 47.066406 165.453125 44.484375 164.695313 40.308594 L 163.386719 33.085938 C 162.753906 29.601563 162.195313 29.070313 159.5 29.222656 C 159.289063 29.222656 159.148438 28.453125 159.410156 28.484375 C 160.703125 28.460938 161.628906 28.25 163.414063 27.925781 C 164.671875 27.699219 166.003906 27.414063 166.914063 27.121094 C 167.230469 27.023438 167.210938 27.824219 167.128906 27.839844 C 164.371094 28.589844 164.292969 29.527344 164.886719 32.8125 L 166.273438 40.441406 "/>
<path style=" stroke:none;fill-rule:nonzero;fill:rgb(100%,100%,100%);fill-opacity:1;" d="M 195.339844 41.828125 C 195.300781 43.351563 195.277344 46.15625 195.414063 47.480469 C 195.410156 47.605469 194.910156 47.757813 194.671875 47.503906 L 179.660156 31.527344 L 179.429688 41.460938 C 179.355469 44.757813 179.617188 45.917969 182.453125 46.230469 C 182.535156 46.234375 182.597656 47.101563 182.355469 47.015625 C 181.410156 46.867188 180.296875 46.800781 179.019531 46.769531 C 177.203125 46.730469 175.886719 46.699219 174.5625 46.832031 C 174.355469 46.871094 174.457031 46.046875 174.582031 46.050781 C 177.308594 45.824219 177.742188 44.925781 177.824219 41.425781 L 178.066406 30.832031 C 178.101563 29.429688 175.546875 27.476563 174.148438 27.277344 C 174.023438 27.273438 173.964844 26.40625 174.210938 26.492188 C 175.484375 26.730469 177.871094 26.828125 179.644531 26.871094 L 193.683594 42.082031 L 193.902344 32.476563 C 193.984375 28.933594 193.59375 28.015625 190.921875 27.667969 C 190.71875 27.621094 190.738281 26.796875 190.980469 26.886719 C 192.210938 27.117188 193.242188 27.144531 195.058594 27.1875 C 196.375 27.21875 197.777344 27.167969 198.6875 27.0625 C 199.101563 27.03125 198.875 27.851563 198.792969 27.847656 C 195.902344 27.988281 195.628906 29.21875 195.550781 32.515625 L 195.339844 41.828125 "/>
<path style=" stroke:none;fill-rule:nonzero;fill:rgb(100%,100%,100%);fill-opacity:1;" d="M 220.976563 50.324219 C 218.015625 51.160156 215.453125 51.488281 212.429688 50.828125 C 205.460938 49.316406 202.207031 43.714844 203.34375 38.476563 C 204.542969 32.957031 210.484375 28.722656 217.414063 30.230469 C 220.273438 30.851563 223.117188 32.90625 223.535156 33.503906 C 223.734375 33.757813 223.457031 36.394531 222.882813 38.253906 C 222.839844 38.457031 222.09375 38.210938 222.109375 38.128906 C 222.464844 35.714844 220.527344 32.214844 216.375 31.3125 C 211.863281 30.332031 208.15625 32.648438 206.972656 38.085938 C 205.542969 44.652344 208.71875 48.675781 213.070313 49.621094 C 216.214844 50.304688 216.863281 49.648438 217.121094 49.234375 C 217.3125 48.941406 217.597656 48.03125 217.742188 47.34375 C 218.582031 43.476563 218.5 43.289063 215.324219 42.347656 C 215.203125 42.320313 215.261719 41.488281 215.492188 41.582031 C 216.757813 41.984375 218.996094 42.554688 220.765625 42.941406 C 222.019531 43.214844 223.839844 43.566406 224.789063 43.648438 C 225.050781 43.617188 224.792969 44.40625 224.671875 44.382813 C 221.882813 44.027344 221.804688 44.390625 220.96875 48.21875 C 220.777344 49.101563 220.675781 49.792969 220.976563 50.324219 "/>
<path style=" stroke:none;fill-rule:nonzero;fill:rgb(100%,100%,100%);fill-opacity:1;" d="M 256.589844 59.992188 C 254.652344 63.726563 250.203125 65.410156 245.296875 62.867188 C 241.050781 60.664063 238.816406 56.113281 241.09375 51.726563 L 244.433594 45.28125 C 246.234375 41.808594 246.078125 41.121094 243.855469 39.597656 L 244.234375 38.953125 C 245.273438 39.726563 247.050781 40.601563 248.695313 41.457031 C 249.867188 42.0625 251.714844 42.976563 252.648438 43.320313 C 252.910156 43.363281 252.527344 44.09375 252.34375 44 C 249.742188 42.925781 249.140625 43.546875 247.4375 46.839844 L 244.414063 52.660156 C 242.195313 56.941406 243.992188 60.285156 246.808594 61.75 C 250.507813 63.664063 253.46875 62.695313 255.425781 58.929688 L 258.804688 52.410156 C 260.4375 49.265625 260.316406 48.503906 258.09375 46.980469 L 258.46875 46.339844 C 259.511719 47.109375 260.371094 47.511719 261.980469 48.347656 C 263.117188 48.933594 264.34375 49.527344 265.238281 49.851563 C 265.550781 49.96875 265.042969 50.589844 264.972656 50.546875 C 262.332031 49.457031 261.695313 50.152344 260.15625 53.113281 L 256.589844 59.992188 "/>
<path style=" stroke:none;fill-rule:nonzero;fill:rgb(100%,100%,100%);fill-opacity:1;" d="M 278.75 78.882813 C 277.789063 80.066406 276.054688 82.265625 275.351563 83.398438 C 275.273438 83.496094 274.785156 83.3125 274.75 82.964844 L 272.648438 61.140625 L 266.386719 68.859375 C 264.3125 71.417969 263.808594 72.5 265.863281 74.480469 C 265.925781 74.53125 265.445313 75.257813 265.304688 75.039063 C 264.644531 74.347656 263.808594 73.609375 262.8125 72.808594 C 261.40625 71.664063 260.382813 70.832031 259.253906 70.128906 L 259.742188 69.519531 C 262.039063 71.011719 262.933594 70.566406 265.140625 67.84375 L 271.8125 59.613281 C 272.695313 58.527344 271.871094 55.417969 270.890625 54.40625 C 270.792969 54.328125 271.277344 53.605469 271.414063 53.824219 C 272.277344 54.789063 274.109375 56.328125 275.488281 57.445313 L 277.289063 78.066406 L 283.339844 70.605469 C 285.570313 67.851563 285.824219 66.886719 283.921875 64.976563 C 283.789063 64.8125 284.308594 64.171875 284.445313 64.394531 C 285.277344 65.332031 286.078125 65.984375 287.488281 67.125 C 288.511719 67.957031 289.652344 68.773438 290.433594 69.25 C 290.78125 69.476563 290.101563 69.988281 290.035156 69.9375 C 287.667969 68.28125 286.695313 69.085938 284.617188 71.648438 L 278.75 78.882813 "/>
<path style=" stroke:none;fill-rule:nonzero;fill:rgb(100%,100%,100%);fill-opacity:1;" d="M 284.171875 92.472656 C 282.933594 91.085938 281.621094 89.609375 280.617188 88.734375 C 280.339844 88.542969 281.121094 88.121094 281.175781 88.183594 C 283.203125 90.023438 283.875 89.972656 286.769531 87.394531 L 293.726563 81.199219 C 296.648438 78.59375 296.773438 77.929688 295.179688 75.703125 C 295.128906 75.644531 295.632813 74.96875 295.820313 75.242188 C 296.515625 76.335938 297.835938 77.8125 299.066406 79.199219 C 299.890625 80.121094 301.378906 81.667969 302.101563 82.292969 C 302.347656 82.511719 301.621094 82.9375 301.570313 82.875 C 299.523438 80.890625 298.6875 81.25 295.945313 83.691406 L 288.988281 89.890625 C 286.25 92.328125 285.855469 93.066406 287.5625 95.355469 C 287.617188 95.417969 287.113281 96.089844 286.925781 95.816406 C 286.390625 95.023438 284.992188 93.398438 284.171875 92.472656 "/>
<path style=" stroke:none;fill-rule:nonzero;fill:rgb(100%,100%,100%);fill-opacity:1;" d="M 296.058594 108.699219 C 295.933594 108.734375 295.59375 108.363281 295.730469 108.128906 L 304.613281 94.480469 C 306.621094 91.378906 307.097656 89.929688 305.90625 87.75 C 305.84375 87.648438 306.496094 87.070313 306.5625 87.320313 C 307.003906 88.214844 307.957031 89.808594 308.660156 90.878906 C 309.65625 92.394531 310.902344 94.285156 311.757813 95.207031 C 311.964844 95.367188 311.273438 95.824219 311.125 95.671875 C 310.238281 94.628906 309.738281 94.019531 309.050781 94.472656 C 308.566406 94.789063 307.765625 95.515625 306.585938 97.328125 L 300.554688 106.683594 L 311.507813 104.800781 C 313.980469 104.355469 314.53125 104.140625 315.152344 103.734375 C 315.734375 103.347656 315.582031 102.660156 314.933594 101.457031 C 314.867188 101.355469 315.523438 100.773438 315.589844 101.027344 C 316.007813 101.886719 316.640625 103 317.367188 104.101563 C 318.386719 105.648438 318.546875 105.894531 319.421875 106.847656 C 319.628906 107.007813 318.859375 107.414063 318.789063 107.3125 C 317.550781 105.804688 316.148438 105.398438 312.234375 106.050781 L 296.058594 108.699219 "/>
<path style=" stroke:none;fill-rule:nonzero;fill:rgb(100%,100%,100%);fill-opacity:1;" d="M 309.078125 133.246094 C 308.601563 132.195313 307.964844 130.359375 307.015625 128.253906 C 305.734375 125.394531 304.199219 121.96875 303.105469 119.933594 C 303.003906 119.707031 303.765625 119.496094 303.820313 119.613281 C 305.441406 122.320313 305.933594 122.414063 309.507813 120.8125 L 318.007813 116.996094 C 321.582031 115.398438 321.917969 114.933594 320.9375 111.9375 C 320.886719 111.824219 321.625 111.359375 321.6875 111.601563 C 322.441406 113.792969 323.890625 117.117188 325.171875 119.980469 C 326.085938 122.011719 327.035156 123.933594 327.960938 125.597656 C 327.273438 125.679688 326.480469 126.03125 325.917969 126.285156 C 325.613281 126.417969 324.769531 126.753906 324.601563 126.875 L 324.242188 126.175781 C 325.382813 125.394531 325.78125 124.675781 324.148438 121.023438 L 323.050781 118.582031 C 322.359375 118.753906 321.289063 119.1875 319.519531 119.980469 L 316.058594 121.53125 L 316.902344 123.414063 C 318.320313 126.570313 318.496094 126.765625 319.835938 126.527344 C 319.910156 126.492188 320.269531 127.191406 320.0625 127.238281 C 319.597656 127.3125 318.414063 127.796875 317.773438 128.082031 C 317.4375 128.234375 316.417969 128.6875 316.15625 128.808594 L 315.796875 128.109375 C 317.148438 127.1875 317.160156 126.914063 315.808594 123.902344 L 314.96875 122.023438 L 311.242188 123.691406 C 307.628906 125.3125 307.378906 125.652344 307.949219 126.929688 L 308.609375 128.394531 C 310.546875 132.722656 311.199219 132.566406 313.230469 132.152344 L 313.488281 132.9375 C 312.726563 133.144531 310.746094 133.671875 310.097656 133.734375 C 309.492188 133.875 309.296875 133.738281 309.078125 133.246094 "/>
<path style=" stroke:none;fill-rule:nonzero;fill:rgb(100%,100%,100%);fill-opacity:1;" d="M 331.398438 140.246094 C 330.800781 140.238281 329.621094 140.46875 327.472656 141.039063 L 322.691406 142.320313 C 322.789063 142.679688 322.8125 142.925781 322.949219 143.445313 C 324.003906 147.386719 325.933594 148.535156 328.640625 147.8125 C 331.988281 146.917969 332.671875 144.6875 331.742188 141.222656 C 331.628906 140.785156 331.554688 140.675781 331.398438 140.246094 Z M 321.804688 143.792969 C 321.648438 143.195313 321.59375 142.996094 321.535156 142.628906 L 318.191406 143.523438 C 314.605469 144.480469 313.964844 144.949219 314.449219 147.722656 C 314.484375 147.84375 313.667969 148.144531 313.683594 147.886719 C 313.558594 146.9375 313.054688 144.894531 312.714844 143.621094 C 312.246094 141.871094 311.722656 139.917969 311.226563 138.683594 C 311.082031 138.46875 311.949219 138.363281 311.980469 138.480469 C 312.949219 140.996094 313.554688 141.347656 317.339844 140.335938 L 326.34375 137.925781 C 329.808594 137 330.394531 136.160156 330.019531 134.765625 C 329.9375 134.449219 329.800781 134.101563 329.601563 133.683594 C 329.480469 133.546875 330.183594 133.144531 330.285156 133.375 C 331.027344 134.542969 332.132813 138.042969 333.007813 141.308594 C 334.445313 146.6875 333.5 150.011719 330.3125 150.863281 C 328.320313 151.394531 325.988281 150.480469 324.363281 148.398438 C 320.726563 151.082031 316.242188 156.332031 317.171875 159.796875 C 317.199219 159.917969 316.476563 160.238281 316.414063 160 C 314.667969 153.46875 318.300781 148.527344 322.644531 145.960938 C 322.328125 145.273438 321.964844 144.390625 321.804688 143.792969 "/>
<path style=" stroke:none;fill-rule:nonzero;fill:rgb(100%,100%,100%);fill-opacity:1;" d="M 318.503906 161.4375 C 318.613281 161.257813 320.921875 161.125 323.105469 161.007813 C 323.3125 160.984375 323.3125 161.730469 323.230469 161.738281 C 320.144531 162.332031 317.867188 164.246094 318.222656 167.441406 C 318.46875 169.652344 319.949219 171.023438 321.917969 170.804688 C 327.039063 170.234375 326.03125 161.21875 331.648438 160.59375 C 334.472656 160.28125 337.664063 162.492188 338.085938 166.265625 C 338.285156 168.066406 337.882813 169.277344 337.386719 170.410156 C 337.253906 170.671875 335.605469 171.1875 333.519531 171.421875 L 333.425781 170.597656 C 335.640625 169.980469 337.03125 168.332031 336.785156 166.117188 C 336.570313 164.195313 335.46875 162.863281 333.582031 163.074219 C 328.664063 163.625 329.777344 172.460938 323.875 173.117188 C 320.515625 173.492188 317.3125 171.195313 316.878906 167.300781 C 316.625 165.046875 317.328125 163.183594 318.503906 161.4375 "/>
<path style=" stroke:none;fill-rule:nonzero;fill:rgb(100%,100%,100%);fill-opacity:1;" d="M 318.332031 184.558594 C 318.359375 182.703125 318.382813 180.726563 318.234375 179.40625 C 318.15625 179.074219 319.019531 179.289063 319.019531 179.371094 C 319.269531 182.097656 319.800781 182.515625 323.675781 182.570313 L 332.992188 182.695313 C 336.90625 182.746094 337.449219 182.34375 337.773438 179.625 C 337.777344 179.542969 338.601563 179.386719 338.554688 179.71875 C 338.335938 180.992188 338.308594 182.96875 338.285156 184.828125 C 338.265625 186.0625 338.320313 188.210938 338.433594 189.15625 C 338.46875 189.488281 337.644531 189.3125 337.648438 189.230469 C 337.476563 186.382813 336.617188 186.082031 332.945313 186.035156 L 323.628906 185.910156 C 319.964844 185.859375 319.175781 186.136719 318.890625 188.980469 C 318.886719 189.0625 318.0625 189.214844 318.109375 188.886719 C 318.246094 187.9375 318.316406 185.792969 318.332031 184.558594 "/>
<path style=" stroke:none;fill-rule:nonzero;fill:rgb(100%,100%,100%);fill-opacity:1;" d="M 330.964844 216.054688 L 331.085938 215.320313 C 332.472656 215.246094 333.578125 214.339844 334.09375 211.082031 L 334.523438 208.394531 L 321.617188 206.34375 C 317.992188 205.765625 317.179688 205.886719 316.480469 208.699219 C 316.460938 208.820313 315.636719 208.773438 315.730469 208.453125 C 316 207.535156 316.371094 205.46875 316.578125 204.164063 C 316.855469 202.414063 317.171875 200.417969 317.210938 199.128906 C 317.179688 198.789063 318.007813 199.089844 317.992188 199.210938 C 317.847656 201.941406 318.3125 202.433594 322.140625 203.042969 L 335.046875 205.09375 L 335.5 202.246094 C 335.996094 199.109375 335.296875 197.746094 333.9375 197.109375 L 334.136719 196.390625 C 334.765625 196.613281 336.300781 196.941406 337.15625 197.078125 C 337.484375 197.128906 338.09375 197.226563 338.773438 197.167969 L 338.695313 197.910156 C 337.679688 197.996094 337.625 198.070313 336.929688 202.46875 L 335.523438 211.304688 C 334.832031 215.660156 334.796875 215.863281 335.777344 216.269531 L 335.578125 216.992188 C 334.953125 216.722656 333.90625 216.476563 332.890625 216.316406 C 332.398438 216.238281 331.378906 216.078125 330.964844 216.054688 "/>
<path style=" stroke:none;fill-rule:nonzero;fill:rgb(100%,100%,100%);fill-opacity:1;" d="M 320.492188 229.714844 L 315.984375 228.234375 C 311.835938 226.867188 311.652344 227.152344 310.542969 229.738281 C 310.5 229.859375 309.65625 229.664063 309.808594 229.453125 C 310.238281 228.554688 310.921875 226.609375 311.335938 225.355469 C 311.910156 223.59375 312.53125 221.714844 312.789063 220.40625 C 312.785156 220.148438 313.570313 220.535156 313.53125 220.652344 C 313.007813 223.304688 312.683594 223.628906 317.027344 225.058594 L 321.0625 226.386719 L 326 225.105469 C 331.261719 223.757813 332.117188 223.257813 333.164063 220.867188 C 333.207031 220.75 334.066406 220.902344 333.910156 221.109375 C 333.339844 222.3125 332.839844 223.839844 332.269531 225.5625 C 331.859375 226.816406 331.265625 228.746094 331.089844 229.6875 C 331.089844 229.949219 330.292969 229.597656 330.332031 229.480469 C 330.972656 226.871094 330.101563 227.148438 325.046875 228.523438 L 321.855469 229.382813 L 324.371094 232.8125 C 327.421875 236.988281 327.617188 236.792969 328.679688 234.492188 C 328.71875 234.375 329.59375 234.488281 329.410156 234.777344 C 328.855469 235.941406 328.441406 237.191406 327.875 238.917969 C 327.464844 240.171875 327.242188 240.964844 327.066406 241.902344 C 327.066406 242.164063 326.269531 241.816406 326.308594 241.695313 C 326.949219 239.089844 326.632813 238.203125 323.738281 234.210938 L 320.492188 229.714844 "/>
<path style=" stroke:none;fill-rule:nonzero;fill:rgb(100%,100%,100%);fill-opacity:1;" d="M 303.613281 254.894531 L 310.523438 253.160156 L 312.257813 260.070313 L 305.347656 261.804688 L 303.613281 254.894531 "/>
<path style=" stroke:none;fill-rule:nonzero;fill:rgb(100%,100%,100%);fill-opacity:1;" d="M 73.863281 295.257813 C 73.070313 294.417969 72.027344 293.078125 70.4375 291.402344 C 68.285156 289.128906 65.503906 286.195313 63.824219 284.664063 C 63.566406 284.453125 64.308594 284.035156 64.363281 284.09375 C 66.789063 286.113281 67.3125 286.070313 70.15625 283.375 L 76.917969 276.964844 C 79.761719 274.273438 79.867188 273.601563 78.203125 271.429688 C 78.117188 271.34375 78.605469 270.59375 78.828125 270.949219 C 79.53125 271.988281 80.917969 273.457031 82.140625 274.742188 C 83.046875 275.699219 84.550781 277.167969 85.296875 277.773438 C 85.527344 277.898438 84.84375 278.433594 84.785156 278.371094 C 82.675781 276.449219 81.851563 276.832031 79.191406 279.359375 L 72.640625 285.570313 C 70.453125 287.640625 69.816406 288.585938 70.867188 289.691406 L 71.886719 290.769531 C 75.207031 294.269531 75.945313 293.910156 77.457031 292.988281 L 77.964844 293.585938 C 77.28125 294.121094 75.566406 295.066406 75.003906 295.375 C 74.4375 295.679688 74.234375 295.644531 73.863281 295.257813 "/>
<path style=" stroke:none;fill-rule:nonzero;fill:rgb(100%,100%,100%);fill-opacity:1;" d="M 89.875 297.429688 L 94.425781 300.910156 L 96.601563 293.855469 Z M 89.042969 307.953125 C 88.796875 307.867188 89.417969 307.257813 89.519531 307.328125 C 90.730469 308.050781 91.296875 308.738281 91.796875 308.082031 C 92.371094 307.332031 92.773438 305.925781 93.296875 304.351563 L 94.035156 302.167969 L 88.730469 298.113281 L 86.648438 299.273438 C 84.925781 300.238281 83.839844 300.910156 83.339844 301.566406 C 82.914063 302.125 83.535156 302.597656 84.511719 303.5 C 84.675781 303.625 84.148438 304.3125 84.003906 304.097656 C 83.324219 303.421875 82.332031 302.613281 81.285156 301.8125 C 79.878906 300.734375 79.648438 300.558594 78.464844 299.863281 C 78.246094 299.746094 78.84375 299.167969 78.941406 299.242188 C 80.679688 300.359375 82.207031 300.128906 85.554688 298.328125 L 100.078125 290.59375 C 100.269531 290.480469 100.621094 290.699219 100.535156 290.945313 L 96.164063 306.441406 C 95.3125 309.523438 94.84375 311.085938 97.050781 313.085938 C 97.148438 313.160156 96.691406 313.898438 96.542969 313.683594 C 95.832031 312.980469 94.449219 311.875 93.367188 311.046875 C 91.960938 309.972656 90.191406 308.621094 89.042969 307.953125 "/>
<path style=" stroke:none;fill-rule:nonzero;fill:rgb(100%,100%,100%);fill-opacity:1;" d="M 106.644531 319.101563 C 105.023438 318.195313 103.296875 317.234375 102.0625 316.734375 C 101.734375 316.648438 102.335938 315.988281 102.410156 316.03125 C 104.925781 317.105469 105.546875 316.835938 107.433594 313.449219 L 111.972656 305.316406 C 113.878906 301.894531 113.777344 301.226563 111.542969 299.644531 C 111.472656 299.605469 111.726563 298.808594 111.996094 299.003906 C 113.011719 299.804688 114.742188 300.769531 116.359375 301.671875 C 117.441406 302.273438 119.351563 303.246094 120.242188 303.601563 C 120.550781 303.726563 120.003906 304.363281 119.933594 304.324219 C 117.347656 303.121094 116.675781 303.738281 114.890625 306.941406 L 110.351563 315.074219 C 108.566406 318.28125 108.4375 319.105469 110.800781 320.707031 C 110.871094 320.746094 110.613281 321.546875 110.347656 321.351563 C 109.574219 320.78125 107.722656 319.699219 106.644531 319.101563 "/>
<path style=" stroke:none;fill-rule:nonzero;fill:rgb(100%,100%,100%);fill-opacity:1;" d="M 132.015625 330.675781 C 130.9375 330.257813 129.191406 329.402344 127.039063 328.566406 C 124.121094 327.425781 120.625 326.066406 118.414063 325.382813 C 118.183594 325.292969 118.582031 324.609375 118.699219 324.652344 C 121.753906 325.445313 122.171875 325.164063 123.589844 321.515625 L 126.972656 312.832031 C 128.390625 309.183594 128.300781 308.617188 125.5 307.175781 C 125.386719 307.128906 125.585938 306.277344 125.800781 306.40625 C 127.875 307.433594 131.242188 308.789063 134.160156 309.925781 C 136.234375 310.734375 138.261719 311.433594 140.089844 311.96875 C 139.660156 312.507813 139.34375 313.316406 139.121094 313.890625 C 139 314.199219 138.632813 315.027344 138.597656 315.234375 L 137.851563 314.988281 C 138.117188 313.632813 137.894531 312.839844 134.167969 311.390625 L 131.671875 310.414063 C 131.300781 311.027344 130.84375 312.085938 130.140625 313.890625 L 128.765625 317.425781 L 130.6875 318.171875 C 133.910156 319.429688 134.175781 319.441406 134.960938 318.328125 L 135.617188 318.675781 C 135.339844 319.054688 134.835938 320.230469 134.582031 320.882813 C 134.449219 321.230469 134.046875 322.265625 133.941406 322.535156 L 133.191406 322.289063 C 133.507813 320.6875 133.320313 320.480469 130.246094 319.285156 L 128.324219 318.539063 L 126.84375 322.34375 C 125.410156 326.03125 125.46875 326.449219 126.773438 326.957031 L 128.269531 327.539063 C 132.6875 329.257813 133.042969 328.691406 134.199219 326.972656 L 134.9375 327.347656 C 134.539063 328.03125 133.5 329.796875 133.082031 330.296875 C 132.75 330.832031 132.515625 330.871094 132.015625 330.675781 "/>
<path style=" stroke:none;fill-rule:nonzero;fill:rgb(100%,100%,100%);fill-opacity:1;" d="M 139.359375 336.761719 C 141.90625 337.4375 142.839844 336.488281 143.105469 335.492188 C 143.285156 334.816406 142.949219 334.300781 142.121094 333.570313 C 141.460938 333.011719 141.183594 332.597656 141.363281 331.917969 C 141.566406 331.164063 142.347656 330.773438 143.1875 330.996094 C 144.460938 331.332031 145.53125 332.765625 145.015625 334.722656 C 144.402344 337.03125 141.945313 338.257813 139.195313 337.53125 C 138.957031 337.464844 139.277344 336.738281 139.359375 336.761719 "/>
<path style=" stroke:none;fill-rule:nonzero;fill:rgb(100%,100%,100%);fill-opacity:1;" d="M 179.722656 338.976563 C 179.515625 339.011719 179.628906 338.1875 179.75 338.191406 C 182.148438 337.992188 182.625 337.433594 182.765625 333.601563 L 182.914063 329.398438 L 171.875 329 L 171.722656 333.203125 C 171.589844 336.824219 171.890625 337.703125 174.355469 337.996094 C 174.480469 338 174.527344 338.871094 174.285156 338.777344 C 173.300781 338.621094 171.488281 338.511719 170.171875 338.464844 C 168.402344 338.402344 166.09375 338.316406 164.769531 338.433594 C 164.515625 338.507813 164.671875 337.648438 164.796875 337.652344 C 167.9375 337.394531 168.242188 336.992188 168.386719 333.078125 L 168.722656 323.769531 C 168.863281 319.855469 168.59375 319.347656 165.472656 318.90625 C 165.351563 318.902344 165.300781 318.035156 165.542969 318.125 C 166.8125 318.378906 169.121094 318.460938 170.890625 318.523438 C 172.210938 318.574219 174.027344 318.554688 175.019531 318.46875 C 175.273438 318.394531 175.15625 319.257813 175.035156 319.25 C 172.554688 319.371094 172.195313 320.222656 172.0625 323.890625 L 171.921875 327.800781 L 182.960938 328.199219 L 183.101563 324.289063 C 183.242188 320.414063 182.808594 319.777344 180.429688 319.445313 C 180.304688 319.441406 180.253906 318.574219 180.460938 318.621094 C 181.730469 318.875 183.5 318.980469 185.269531 319.042969 C 186.632813 319.09375 189.019531 319.097656 189.972656 319.007813 C 190.222656 318.933594 190.191406 319.796875 189.984375 319.789063 C 186.765625 319.921875 186.570313 320.699219 186.433594 324.40625 L 186.097656 333.71875 C 185.964844 337.425781 186.101563 338.132813 189.304688 338.535156 C 189.511719 338.542969 189.480469 339.410156 189.238281 339.316406 C 188.292969 339.160156 185.90625 339.03125 184.546875 338.980469 C 182.777344 338.921875 181.046875 338.859375 179.722656 338.976563 "/>
<path style=" stroke:none;fill-rule:nonzero;fill:rgb(100%,100%,100%);fill-opacity:1;" d="M 202.71875 328.789063 L 208.375 327.859375 L 204.726563 321.441406 Z M 209.8125 336.601563 C 209.582031 336.726563 209.5625 335.851563 209.683594 335.832031 C 211.039063 335.441406 211.925781 335.503906 211.792969 334.691406 C 211.640625 333.753906 210.890625 332.5 210.105469 331.039063 L 209.019531 329.007813 L 202.429688 330.089844 L 201.847656 332.398438 C 201.371094 334.316406 201.117188 335.570313 201.253906 336.382813 C 201.363281 337.074219 202.136719 336.949219 203.460938 336.859375 C 203.664063 336.824219 203.800781 337.679688 203.546875 337.636719 C 202.589844 337.671875 201.320313 337.835938 200.023438 338.046875 C 198.273438 338.335938 197.988281 338.382813 196.671875 338.765625 C 196.433594 338.847656 196.421875 338.015625 196.546875 337.992188 C 198.550781 337.496094 199.429688 336.226563 200.410156 332.554688 L 204.738281 316.679688 C 204.785156 316.460938 205.1875 316.355469 205.304688 316.585938 L 213.59375 330.386719 C 215.253906 333.125 216.070313 334.535156 219.039063 334.300781 C 219.160156 334.277344 219.382813 335.121094 219.128906 335.078125 C 218.128906 335.117188 216.375 335.363281 215.03125 335.582031 C 213.28125 335.863281 211.085938 336.226563 209.8125 336.601563 "/>
<path style=" stroke:none;fill-rule:nonzero;fill:rgb(100%,100%,100%);fill-opacity:1;" d="M 243.789063 326.867188 C 243.769531 327.050781 243.414063 327.273438 243.234375 327.03125 L 234.230469 316.808594 L 233.488281 330.742188 C 233.464844 330.925781 233.148438 331.136719 232.929688 330.90625 L 221.769531 319.164063 C 219.214844 316.472656 217.882813 315.738281 215.726563 316.328125 C 215.648438 316.363281 215.230469 315.59375 215.488281 315.582031 C 216.417969 315.363281 218.070313 314.832031 219.226563 314.394531 C 220.769531 313.816406 223.277344 312.867188 224.320313 312.253906 L 224.636719 312.972656 C 223.367188 313.582031 222.648438 314.117188 222.9375 314.890625 C 223.15625 315.46875 224.214844 317.007813 225.019531 317.847656 L 232.492188 325.652344 L 233.011719 315.324219 L 232.726563 315.035156 C 230.292969 312.558594 228.914063 311.578125 226.875 312.125 C 226.679688 312.199219 226.335938 311.402344 226.597656 311.394531 C 227.488281 311.1875 229.179688 310.644531 230.296875 310.21875 C 231.878906 309.625 234.617188 308.59375 235.625 307.992188 C 235.828125 307.828125 236.09375 308.65625 235.976563 308.695313 C 234.285156 309.46875 233.742188 310.023438 234.050781 310.832031 C 234.3125 311.527344 234.695313 312.308594 235.9375 313.734375 L 242.78125 321.730469 L 242.914063 310.976563 C 242.914063 308.992188 242.863281 308.265625 242.585938 307.53125 C 242.308594 306.796875 241.65625 306.691406 240.257813 307.085938 C 240.066406 307.15625 239.722656 306.359375 239.980469 306.351563 C 240.835938 306.160156 242.292969 305.699219 243.449219 305.265625 C 245.03125 304.667969 245.253906 304.542969 246.335938 303.914063 C 246.527344 303.84375 246.738281 304.644531 246.664063 304.671875 C 245.164063 305.367188 244.4375 307.183594 244.335938 310.65625 L 243.789063 326.867188 "/>
<path style=" stroke:none;fill-rule:nonzero;fill:rgb(100%,100%,100%);fill-opacity:1;" d="M 257.601563 309.695313 L 262.464844 306.664063 L 256.636719 302.136719 Z M 267.148438 314.1875 C 266.984375 314.390625 266.632813 313.589844 266.734375 313.523438 C 267.835938 312.644531 268.683594 312.359375 268.246094 311.660156 C 267.746094 310.855469 266.570313 309.984375 265.289063 308.9375 L 263.503906 307.476563 L 257.832031 311.007813 L 258.183594 313.363281 C 258.480469 315.316406 258.726563 316.574219 259.160156 317.273438 C 259.53125 317.867188 260.199219 317.453125 261.382813 316.863281 C 261.558594 316.75 262.015625 317.488281 261.765625 317.546875 C 260.890625 317.945313 259.785156 318.585938 258.664063 319.28125 C 257.160156 320.21875 256.917969 320.371094 255.851563 321.230469 L 255.4375 320.566406 C 257.097656 319.339844 257.417969 317.824219 256.917969 314.058594 L 254.8125 297.742188 C 254.773438 297.523438 255.101563 297.269531 255.304688 297.433594 L 268.253906 306.996094 C 270.839844 308.882813 272.136719 309.871094 274.785156 308.511719 C 274.890625 308.449219 275.417969 309.140625 275.164063 309.199219 C 274.261719 309.617188 272.734375 310.519531 271.578125 311.238281 C 270.070313 312.175781 268.183594 313.347656 267.148438 314.1875 "/>
<path style=" stroke:none;fill-rule:nonzero;fill:rgb(100%,100%,100%);fill-opacity:1;" d="M 284.496094 301.089844 C 283.085938 302.292969 281.578125 303.578125 280.683594 304.558594 C 280.484375 304.832031 280.078125 304.042969 280.140625 303.988281 C 282.027344 302.003906 281.992188 301.328125 279.480469 298.378906 L 273.4375 291.285156 C 270.898438 288.308594 270.234375 288.167969 267.980469 289.710938 C 267.914063 289.765625 267.253906 289.242188 267.535156 289.0625 C 268.636719 288.390625 270.144531 287.105469 271.554688 285.902344 C 272.496094 285.101563 274.074219 283.648438 274.71875 282.9375 C 274.941406 282.695313 275.351563 283.429688 275.289063 283.484375 C 273.257813 285.484375 273.597656 286.332031 275.980469 289.121094 L 282.019531 296.214844 C 284.398438 299.007813 285.128906 299.414063 287.453125 297.757813 C 287.511719 297.703125 288.175781 298.226563 287.898438 298.410156 C 287.09375 298.929688 285.4375 300.289063 284.496094 301.089844 "/>
<path style=" stroke:none;fill-rule:nonzero;fill:rgb(100%,100%,100%);fill-opacity:1;" d="M 298.082031 287.941406 C 296.828125 289.304688 295.488281 290.765625 294.714844 291.847656 C 294.554688 292.144531 294.054688 291.40625 294.113281 291.347656 C 295.742188 289.148438 295.628906 288.484375 292.773438 285.859375 L 285.917969 279.550781 C 283.039063 276.898438 282.359375 276.839844 280.308594 278.644531 C 280.253906 278.707031 279.535156 278.269531 279.785156 278.058594 C 280.804688 277.253906 282.144531 275.800781 283.402344 274.433594 C 284.238281 273.523438 285.632813 271.890625 286.179688 271.109375 C 286.371094 270.835938 286.867188 271.515625 286.8125 271.578125 C 285.035156 273.8125 285.480469 274.613281 288.179688 277.09375 L 295.035156 283.402344 C 297.734375 285.886719 298.507813 286.203125 300.617188 284.277344 C 300.667969 284.21875 301.390625 284.652344 301.136719 284.867188 C 300.402344 285.480469 298.921875 287.03125 298.082031 287.941406 "/>
<path style=" stroke:none;fill-rule:nonzero;fill:rgb(86.698914%,70.599365%,14.898682%);fill-opacity:1;" d="M 114.222656 231.214844 L 252.972656 231.214844 C 253.558594 231.214844 254.027344 230.742188 254.027344 230.160156 C 254.027344 229.578125 253.558594 229.105469 252.972656 229.105469 L 114.222656 229.105469 C 113.640625 229.105469 113.167969 229.578125 113.167969 230.160156 C 113.167969 230.742188 113.640625 231.214844 114.222656 231.214844 "/>
<path style=" stroke:none;fill-rule:nonzero;fill:rgb(86.698914%,70.599365%,14.898682%);fill-opacity:1;" d="M 114.222656 137.738281 L 252.972656 137.738281 C 253.558594 137.738281 254.027344 137.265625 254.027344 136.683594 C 254.027344 136.101563 253.558594 135.628906 252.972656 135.628906 L 114.222656 135.628906 C 113.640625 135.628906 113.167969 136.101563 113.167969 136.683594 C 113.167969 137.265625 113.640625 137.738281 114.222656 137.738281 "/>
<path style=" stroke:none;fill-rule:nonzero;fill:rgb(66.299438%,11.399841%,21.199036%);fill-opacity:1;" d="M 95.410156 162.285156 L 95.40625 205.453125 C 95.40625 206.855469 95.488281 207.351563 94.496094 207.96875 C 93.527344 208.570313 92.53125 208.667969 90.933594 208.941406 L 90.902344 208.949219 L 90.933594 209.589844 L 125.855469 209.589844 C 140.589844 209.589844 146.78125 203.746094 146.78125 194.628906 C 146.78125 187.886719 143.644531 183.765625 137.429688 182.214844 L 137.429688 182.015625 C 141.390625 180.777344 145.03125 177.914063 145.03125 170.894531 C 145.03125 161.378906 138.601563 158.152344 124.574219 158.152344 L 90.945313 158.152344 L 90.910156 158.796875 L 90.941406 158.800781 C 92.539063 159.074219 93.535156 159.175781 94.503906 159.777344 C 95.496094 160.390625 95.410156 160.882813 95.410156 162.285156 Z M 111.800781 198.527344 C 111.800781 198.386719 111.800781 191.023438 111.800781 188.15625 C 111.800781 187.460938 111.714844 186.941406 111.714844 186.941406 C 111.714844 186.941406 112.324219 187.027344 112.925781 187.027344 C 113.53125 187.027344 118.640625 187.027344 118.640625 187.027344 C 123.199219 187.027344 128.785156 187.027344 128.785156 193.34375 C 128.785156 198.015625 124.789063 199.652344 119.410156 199.652344 L 112.925781 199.652344 C 112.316406 199.652344 111.730469 199.742188 111.730469 199.742188 C 111.730469 199.742188 111.800781 199.121094 111.800781 198.527344 Z M 111.800781 177.949219 C 111.800781 177.464844 111.800781 171.519531 111.800781 168.988281 C 111.800781 168.292969 111.699219 167.757813 111.699219 167.757813 C 111.699219 167.757813 112.324219 167.859375 112.933594 167.859375 C 113.542969 167.859375 119.691406 167.859375 119.691406 167.859375 C 124.835938 167.859375 127.855469 168.652344 127.855469 173.332031 C 127.855469 176.367188 125.984375 179.082031 119.902344 179.082031 C 119.902344 179.082031 113.546875 179.082031 112.933594 179.082031 C 112.328125 179.082031 111.722656 179.160156 111.722656 179.160156 C 111.722656 179.160156 111.800781 178.574219 111.800781 177.949219 "/>
<path style=" stroke:none;fill-rule:nonzero;fill:rgb(66.299438%,11.399841%,21.199036%);fill-opacity:1;" d="M 271.382813 162.285156 C 271.382813 160.882813 271.304688 160.390625 272.296875 159.777344 C 273.269531 159.175781 274.261719 159.074219 275.859375 158.800781 L 275.890625 158.796875 L 275.859375 158.152344 L 250.101563 158.152344 L 250.0625 158.796875 L 250.097656 158.800781 C 251.726563 159.007813 252.480469 159.175781 253.449219 159.773438 C 254.445313 160.390625 254.359375 160.886719 254.359375 162.285156 L 254.359375 188.230469 C 254.359375 194.148438 250.972656 198.691406 244.242188 198.691406 C 237.515625 198.691406 234.121094 194.148438 234.121094 188.230469 L 234.125 162.289063 C 234.125 160.890625 234.042969 160.394531 235.035156 159.777344 C 236.007813 159.175781 236.820313 159.023438 238.390625 158.800781 L 238.417969 158.796875 L 238.386719 158.152344 L 214.078125 158.152344 L 214.085938 158.796875 L 214.113281 158.800781 C 215.003906 158.855469 215.609375 158.90625 216.160156 159.371094 C 216.96875 160.0625 217.097656 160.886719 217.097656 162.285156 L 217.097656 187.789063 C 217.097656 200.085938 223.824219 210.527344 244.242188 210.527344 C 264.65625 210.527344 271.382813 200.085938 271.382813 187.789063 L 271.382813 162.285156 "/>
<path style=" stroke:none;fill-rule:nonzero;fill:rgb(66.299438%,11.399841%,21.199036%);fill-opacity:1;" d="M 193.324219 209.589844 L 193.355469 208.949219 L 193.324219 208.941406 C 191.726563 208.667969 190.734375 208.570313 189.765625 207.96875 C 188.769531 207.351563 188.855469 206.855469 188.855469 205.457031 L 188.855469 189.070313 L 206.667969 162.621094 C 207.644531 161.167969 208.269531 160.410156 209.066406 159.734375 C 209.203125 159.625 209.53125 159.40625 209.734375 159.277344 C 210.46875 158.910156 210.746094 158.820313 211.65625 158.796875 L 211.683594 158.792969 L 211.710938 158.152344 L 187.6875 158.148438 C 187.488281 158.148438 187.53125 158.78125 187.695313 158.796875 L 187.726563 158.804688 C 188.898438 158.804688 190.328125 158.8125 190.09375 160.484375 C 189.960938 162.109375 183.035156 172.125 180.570313 175.925781 C 180.21875 176.46875 179.941406 177.035156 179.824219 177.71875 C 179.734375 177.046875 179.3125 176.355469 179.023438 175.933594 C 175.589844 170.8125 169.710938 162.519531 169.539063 160.484375 C 169.394531 158.746094 170.738281 158.796875 171.910156 158.796875 L 171.9375 158.792969 C 172.105469 158.777344 172.167969 158.148438 171.96875 158.148438 L 146.738281 158.152344 L 146.757813 158.792969 L 146.789063 158.796875 C 147.863281 158.90625 148.453125 158.832031 149.714844 159.449219 L 150.351563 159.867188 C 151.152344 160.539063 151.640625 161.164063 152.621094 162.617188 L 170.410156 188.957031 L 170.410156 205.453125 C 170.410156 206.855469 170.492188 207.351563 169.503906 207.96875 C 168.527344 208.566406 167.535156 208.667969 165.9375 208.9375 L 165.90625 208.945313 L 165.9375 209.585938 L 193.324219 209.585938 L 193.324219 209.589844 "/>
<path style=" stroke:none;fill-rule:nonzero;fill:rgb(66.299438%,11.399841%,21.199036%);fill-opacity:1;" d="M 142.980469 264.230469 L 142.980469 263.589844 C 144.929688 263.355469 145.300781 262.882813 145.300781 259.757813 L 145.300781 256.328125 L 136.289063 256.328125 L 136.289063 259.757813 C 136.289063 262.71875 136.554688 263.425781 138.574219 263.589844 C 138.675781 263.589844 138.742188 264.296875 138.539063 264.230469 C 137.734375 264.128906 136.253906 264.097656 135.179688 264.097656 C 133.730469 264.097656 131.847656 264.097656 130.773438 264.230469 C 130.570313 264.296875 130.671875 263.589844 130.773438 263.589844 C 133.328125 263.285156 133.5625 262.949219 133.5625 259.757813 L 133.5625 252.15625 C 133.5625 248.960938 133.328125 248.558594 130.773438 248.289063 C 130.671875 248.289063 130.605469 247.582031 130.808594 247.648438 C 131.847656 247.816406 133.734375 247.816406 135.179688 247.816406 C 136.253906 247.816406 137.734375 247.75 138.539063 247.648438 C 138.742188 247.582031 138.675781 248.289063 138.574219 248.289063 C 136.554688 248.457031 136.289063 249.164063 136.289063 252.15625 L 136.289063 255.351563 L 145.300781 255.351563 L 145.300781 252.15625 C 145.300781 248.996094 144.929688 248.492188 142.980469 248.289063 L 142.980469 247.617188 C 144.023438 247.785156 145.46875 247.820313 146.914063 247.820313 C 148.023438 247.820313 149.972656 247.753906 150.746094 247.652344 C 150.949219 247.585938 150.949219 248.289063 150.78125 248.289063 C 148.160156 248.492188 148.023438 249.128906 148.023438 252.15625 L 148.023438 259.757813 C 148.023438 262.785156 148.160156 263.359375 150.78125 263.59375 C 150.949219 263.59375 150.949219 264.300781 150.746094 264.230469 C 149.972656 264.132813 148.023438 264.097656 146.914063 264.097656 C 145.46875 264.097656 144.058594 264.097656 142.980469 264.230469 "/>
<path style=" stroke:none;fill-rule:nonzero;fill:rgb(66.299438%,11.399841%,21.199036%);fill-opacity:1;" d="M 158.585938 257 L 163.257813 257 L 161.175781 251.351563 Z M 163.257813 264.230469 C 163.058594 264.296875 163.15625 263.589844 163.257813 263.589844 C 164.402344 263.457031 165.109375 263.625 165.109375 262.949219 C 165.109375 262.179688 164.671875 261.066406 164.234375 259.789063 L 163.628906 258.007813 L 158.179688 258.007813 L 157.40625 259.789063 C 156.765625 261.269531 156.394531 262.242188 156.394531 262.917969 C 156.394531 263.488281 157.035156 263.488281 158.109375 263.589844 C 158.28125 263.589844 158.28125 264.296875 158.078125 264.226563 C 157.304688 264.125 156.261719 264.09375 155.183594 264.09375 C 153.738281 264.09375 153.503906 264.09375 152.394531 264.226563 C 152.191406 264.261719 152.292969 263.589844 152.394531 263.589844 C 154.074219 263.453125 154.949219 262.546875 156.226563 259.722656 L 161.808594 247.515625 C 161.878906 247.34375 162.214844 247.3125 162.28125 247.515625 L 167.121094 259.722656 C 168.097656 262.140625 168.570313 263.386719 170.988281 263.589844 C 171.089844 263.589844 171.15625 264.296875 170.953125 264.226563 C 170.148438 264.125 168.703125 264.09375 167.59375 264.09375 C 166.152344 264.097656 164.335938 264.097656 163.257813 264.230469 "/>
<path style=" stroke:none;fill-rule:nonzero;fill:rgb(66.299438%,11.399841%,21.199036%);fill-opacity:1;" d="M 188.382813 264.398438 C 188.316406 264.53125 187.980469 264.601563 187.910156 264.363281 L 183.976563 253.972656 L 179.402344 264.394531 C 179.335938 264.527344 179.035156 264.597656 178.933594 264.363281 L 173.785156 252.1875 C 172.609375 249.394531 171.804688 248.453125 169.988281 248.285156 C 169.921875 248.285156 169.816406 247.578125 170.019531 247.644531 C 170.792969 247.746094 172.207031 247.8125 173.214844 247.8125 C 174.5625 247.8125 176.746094 247.8125 177.722656 247.644531 L 177.753906 248.285156 C 176.613281 248.386719 175.90625 248.589844 175.90625 249.261719 C 175.90625 249.761719 176.277344 251.242188 176.648438 252.117188 L 180.113281 260.222656 L 183.476563 252.488281 L 183.34375 252.183594 C 182.199219 249.59375 181.425781 248.449219 179.710938 248.28125 C 179.539063 248.28125 179.507813 247.574219 179.710938 247.644531 C 180.449219 247.742188 181.894531 247.8125 182.871094 247.8125 C 184.25 247.8125 186.636719 247.8125 187.578125 247.644531 C 187.78125 247.574219 187.746094 248.28125 187.644531 248.28125 C 186.132813 248.382813 185.5625 248.652344 185.5625 249.359375 C 185.5625 249.964844 185.628906 250.671875 186.167969 252.117188 L 189.09375 260.191406 L 192.289063 252.015625 C 192.859375 250.503906 193.03125 249.933594 193.03125 249.292969 C 193.03125 248.652344 192.558594 248.382813 191.382813 248.28125 C 191.214844 248.28125 191.179688 247.574219 191.382813 247.644531 C 192.089844 247.742188 193.335938 247.8125 194.34375 247.8125 C 195.722656 247.8125 195.921875 247.777344 196.933594 247.609375 L 196.96875 248.28125 C 195.621094 248.382813 194.546875 249.554688 193.46875 252.183594 L 188.382813 264.398438 "/>
<path style=" stroke:none;fill-rule:nonzero;fill:rgb(66.299438%,11.399841%,21.199036%);fill-opacity:1;" d="M 201.699219 257 L 206.375 257 L 204.289063 251.351563 Z M 206.375 264.230469 C 206.171875 264.296875 206.273438 263.589844 206.375 263.589844 C 207.519531 263.457031 208.222656 263.625 208.222656 262.949219 C 208.222656 262.179688 207.789063 261.066406 207.351563 259.789063 L 206.746094 258.007813 L 201.296875 258.007813 L 200.523438 259.789063 C 199.882813 261.269531 199.515625 262.242188 199.515625 262.917969 C 199.515625 263.488281 200.152344 263.488281 201.230469 263.589844 C 201.398438 263.589844 201.398438 264.296875 201.195313 264.226563 C 200.421875 264.125 199.378906 264.09375 198.304688 264.09375 C 196.855469 264.09375 196.621094 264.09375 195.511719 264.226563 C 195.3125 264.261719 195.410156 263.589844 195.511719 263.589844 C 197.195313 263.453125 198.066406 262.546875 199.347656 259.722656 L 204.929688 247.515625 C 204.996094 247.34375 205.332031 247.3125 205.402344 247.515625 L 210.246094 259.722656 C 211.21875 262.140625 211.691406 263.386719 214.113281 263.589844 C 214.214844 263.589844 214.277344 264.296875 214.078125 264.226563 C 213.269531 264.125 211.824219 264.09375 210.714844 264.09375 C 209.265625 264.097656 207.453125 264.097656 206.375 264.230469 "/>
<path style=" stroke:none;fill-rule:nonzero;fill:rgb(66.299438%,11.399841%,21.199036%);fill-opacity:1;" d="M 221.207031 264.097656 C 219.691406 264.097656 218.082031 264.097656 217.003906 264.230469 C 216.734375 264.296875 216.902344 263.589844 216.96875 263.589844 C 219.191406 263.355469 219.527344 262.921875 219.527344 259.757813 L 219.527344 252.15625 C 219.527344 248.960938 219.191406 248.523438 216.96875 248.289063 C 216.902344 248.289063 216.765625 247.617188 217.035156 247.648438 C 218.078125 247.816406 219.691406 247.816406 221.207031 247.816406 C 222.214844 247.816406 223.96875 247.75 224.738281 247.648438 C 225.007813 247.613281 224.871094 248.289063 224.808594 248.289063 C 222.484375 248.457031 222.25 249.164063 222.25 252.15625 L 222.25 259.757813 C 222.25 262.75 222.484375 263.390625 224.808594 263.589844 C 224.871094 263.589844 225.007813 264.265625 224.738281 264.230469 C 223.964844 264.128906 222.214844 264.097656 221.207031 264.097656 "/>
<path style=" stroke:none;fill-rule:nonzero;fill:rgb(66.299438%,11.399841%,21.199036%);fill-opacity:1;" d="M 233.480469 264.097656 C 231.96875 264.097656 230.355469 264.097656 229.277344 264.230469 C 229.011719 264.296875 229.179688 263.589844 229.242188 263.589844 C 231.464844 263.355469 231.800781 262.921875 231.800781 259.757813 L 231.800781 252.15625 C 231.800781 248.960938 231.464844 248.523438 229.242188 248.289063 C 229.179688 248.289063 229.039063 247.617188 229.3125 247.648438 C 230.351563 247.816406 231.96875 247.816406 233.480469 247.816406 C 234.492188 247.816406 236.242188 247.75 237.015625 247.648438 C 237.285156 247.613281 237.148438 248.289063 237.082031 248.289063 C 234.757813 248.457031 234.523438 249.164063 234.523438 252.15625 L 234.523438 259.757813 C 234.523438 262.75 234.757813 263.390625 237.082031 263.589844 C 237.148438 263.589844 237.285156 264.265625 237.015625 264.230469 C 236.242188 264.128906 234.492188 264.097656 233.480469 264.097656 "/>
</g>
</svg>
